<svg width="30" height="30" viewBox="0 0 30 30" fill="none" xmlns="http://www.w3.org/2000/svg">
<path class="dribbble" fill-rule="evenodd" clip-rule="evenodd" d="M15 0C6.72 0 0 6.72 0 15C0 23.28 6.72 30 15 30C23.265 30 30 23.28 30 15C30 6.72 23.265 0 15 0ZM24.9075 6.915C26.7541 9.16364 27.7762 11.9761 27.8044 14.8856C27.3806 14.805 23.1506 13.9425 18.8888 14.4788C18.7913 14.2688 18.7087 14.04 18.6112 13.8131C18.3506 13.1944 18.0581 12.5606 17.7656 11.9569C22.4831 10.0387 24.6319 7.27313 24.9094 6.91313L24.9075 6.915ZM15 2.2125C18.2531 2.2125 21.2306 3.43125 23.4937 5.43375C23.265 5.76 21.3281 8.34562 16.7738 10.0537C14.6738 6.19875 12.3487 3.04125 11.9906 2.55375C12.9771 2.32342 13.987 2.2089 15 2.2125V2.2125ZM9.54937 3.41625C11.2663 5.79571 12.8524 8.26687 14.3006 10.8187C8.31375 12.4125 3.02625 12.3806 2.45625 12.3806C2.86848 10.4414 3.7231 8.62353 4.95347 7.0689C6.18384 5.51427 7.75669 4.26487 9.54937 3.41812V3.41625ZM2.18062 15.0188V14.625C2.73375 14.6438 8.94937 14.7244 15.3431 12.8044C15.7162 13.5188 16.0575 14.2519 16.3837 14.9831L15.8775 15.1294C9.27375 17.2613 5.76 23.085 5.46562 23.5744C3.35029 21.2261 2.17997 18.1774 2.18062 15.0169V15.0188ZM15 27.8194C12.1529 27.8238 9.3866 26.8731 7.14375 25.1194C7.36875 24.6469 9.97312 19.6369 17.1956 17.115C17.2294 17.0981 17.2444 17.0981 17.2781 17.0831C18.4958 20.2263 19.4105 23.4786 20.01 26.7956C18.4275 27.4756 16.7224 27.824 15 27.8194V27.8194ZM22.1438 25.6238C22.0125 24.8419 21.3281 21.1013 19.6538 16.4963C23.6719 15.8625 27.1856 16.9031 27.6244 17.0494C27.3511 18.7794 26.723 20.4341 25.7795 21.9097C24.836 23.3853 23.5975 24.6498 22.1419 25.6238H22.1438Z" fill="#262626"/>
</svg>
