<svg width="24" height="24" viewBox="0 0 24 24" fill="none" xmlns="http://www.w3.org/2000/svg">
<path d="M21.9456 0.0681763H1.91804C0.859091 0.0681763 0 0.927267 0 1.98622V22.0138C0 23.0727 0.859091 23.9318 1.91804 23.9318H21.9456C23.0045 23.9318 23.8636 23.0727 23.8636 22.0138V1.98622C23.8636 0.927267 23.0045 0.0681763 21.9456 0.0681763V0.0681763ZM21.9456 22.0227C8.58793 22.0197 1.90909 22.0168 1.90909 22.0138C1.91207 8.6561 1.91506 1.97727 1.91804 1.97727C15.2757 1.98025 21.9545 1.98323 21.9545 1.98622C21.9516 15.3439 21.9486 22.0227 21.9456 22.0227ZM3.53778 9.01406H7.07855V20.403H3.53778V9.01406ZM5.30966 7.45695C6.4402 7.45695 7.36193 6.5382 7.36193 5.40468C7.36193 5.13517 7.30885 4.8683 7.20571 4.61931C7.10258 4.37032 6.95141 4.14408 6.76084 3.95351C6.57026 3.76293 6.34402 3.61177 6.09503 3.50863C5.84604 3.40549 5.57917 3.35241 5.30966 3.35241C5.04015 3.35241 4.77328 3.40549 4.52429 3.50863C4.2753 3.61177 4.04905 3.76293 3.85848 3.95351C3.66791 4.14408 3.51674 4.37032 3.41361 4.61931C3.31047 4.8683 3.25739 5.13517 3.25739 5.40468C3.2544 6.5382 4.17315 7.45695 5.30966 7.45695ZM12.8357 14.7682C12.8357 13.2827 13.119 11.8449 14.9595 11.8449C16.7732 11.8449 16.8 13.5422 16.8 14.8636V20.403H20.3378V14.1567C20.3378 11.0902 19.6756 8.73068 16.093 8.73068C14.3719 8.73068 13.2175 9.67627 12.7432 10.5712H12.6955V9.01406H9.29787V20.403H12.8357V14.7682Z" fill="#262626"/>
</svg>
