<svg width="31" height="26" viewBox="0 0 31 26" fill="none" xmlns="http://www.w3.org/2000/svg">
<path d="M30.8635 3.69884C29.7603 4.1877 28.5751 4.51801 27.3292 4.66731C28.6148 3.89807 29.5766 2.68739 30.0351 1.26116C28.8273 1.97858 27.5054 2.48356 26.1269 2.75416C25.1999 1.76437 23.972 1.10833 22.634 0.887876C21.2959 0.667425 19.9225 0.894902 18.727 1.53499C17.5314 2.17508 16.5807 3.19196 16.0223 4.42777C15.4639 5.66358 15.3291 7.04917 15.6389 8.36941C13.1916 8.24653 10.7974 7.61043 8.61182 6.50238C6.42622 5.39433 4.49804 3.83911 2.9524 1.93763C2.42391 2.84929 2.12002 3.90628 2.12002 5.03197C2.11943 6.04535 2.36899 7.04321 2.84654 7.93702C3.3241 8.83082 4.01489 9.59293 4.85762 10.1557C3.88027 10.1246 2.92449 9.86054 2.06981 9.38544V9.46472C2.06972 10.886 2.56136 12.2636 3.46132 13.3637C4.36128 14.4638 5.61413 15.2186 7.00728 15.5001C6.10062 15.7455 5.15006 15.7816 4.22739 15.6058C4.62046 16.8288 5.38611 17.8982 6.41717 18.6644C7.44822 19.4306 8.69306 19.8552 9.97742 19.8787C7.79716 21.5903 5.10455 22.5187 2.33274 22.5146C1.84174 22.5147 1.35116 22.486 0.863525 22.4287C3.67707 24.2377 6.95223 25.1978 10.2972 25.194C21.6202 25.194 27.8101 15.8159 27.8101 7.68237C27.8101 7.41812 27.8035 7.15123 27.7917 6.88699C28.9957 6.01626 30.035 4.93802 30.8609 3.70281L30.8635 3.69884V3.69884Z" fill="#262626"/>
</svg>
